<svg version="1.1" viewBox="0.0 0.0 302.3622047244094 188.9763779527559" fill="none" stroke="none" stroke-linecap="square" stroke-miterlimit="10" xmlns:xlink="http://www.w3.org/1999/xlink" xmlns="http://www.w3.org/2000/svg">
  <clipPath id="gf398ae68da_0_119.0">
    <path d="m0 0l302.3622 0l0 188.97638l-302.3622 0l0 -188.97638z" clip-rule="nonzero"/>
  </clipPath>
  <g clip-path="url(#gf398ae68da_0_119.0)">
    <path fill="#efefef" d="m44.7509 39.25366l32.0 0l0 106.55118l-32.0 0z" fill-rule="evenodd"/>
    <path stroke="#787878" stroke-width="24.0" stroke-linejoin="round" stroke-linecap="butt"
          d="m232.99475 160.99844l0 0c-37.47708 0 -67.85826 -26.214264 -67.85826 -58.551186"
          fill-rule="evenodd"/>
    <path stroke="#787878" stroke-width="24.0" stroke-linejoin="round" stroke-linecap="butt"
          d="m75.31759 25.007874l0 0c49.601257 0 89.81103 34.689117 89.81103 77.480316"
          fill-rule="evenodd"/>
    <path stroke="#787878" stroke-width="24.0" stroke-linejoin="round" stroke-linecap="butt"
          d="m232.43016 161.01349l31.999985 0"
          fill-rule="evenodd"/>
    <path stroke="#6d9eeb" stroke-width="24.0" stroke-linejoin="round" stroke-linecap="butt"
          d="m76.6918 42.52379l0 0c37.47708 0 67.85826 26.214256 67.85826 58.551178"
          fill-rule="evenodd"/>
    <path stroke="#6d9eeb" stroke-width="24.0" stroke-linejoin="round" stroke-linecap="butt"
          d="m144.55647 101.07497l0 0c0 15.52874 -7.149338 30.421463 -19.875229 41.40193c-12.725891 10.980484 -29.985909 17.149246 -47.98304 17.149246"
          fill-rule="evenodd"/>
    <path stroke="#6d9eeb" stroke-width="24.0" stroke-linejoin="round" stroke-linecap="butt"
          d="m44.660305 42.52379l32.031498 0"
          fill-rule="evenodd"/>
    <path stroke="#6d9eeb" stroke-width="24.0" stroke-linejoin="round" stroke-linecap="butt"
          d="m44.66045 138.93588l32.031498 0"
          fill-rule="evenodd"/>
  </g>
</svg>
