<svg viewBox="0 0 302.3622047244094 188.9763779527559" fill="none" stroke="none" stroke-linecap="square" stroke-miterlimit="10" xmlns:xlink="http://www.w3.org/1999/xlink" xmlns="http://www.w3.org/2000/svg"><clipPath id="gf398ae68da_0_119.0"><path d="m0 0h302.3622v188.97638H0V0z" clip-rule="nonzero"/></clipPath><g clip-path="url(#gf398ae68da_0_119.0)"><path fill="#efefef" d="m44.7509 39.25366h32v106.55118h-32z" fill-rule="evenodd"/><path stroke="#787878" stroke-width="24" stroke-linejoin="round" stroke-linecap="butt" d="m232.99475 160.99844v0c-37.47708.0-67.85826-26.214264-67.85826-58.551186" fill-rule="evenodd"/><path stroke="#787878" stroke-width="24" stroke-linejoin="round" stroke-linecap="butt" d="m75.31759 25.007874v0c49.601257.0 89.81103 34.689117 89.81103 77.480316" fill-rule="evenodd"/><path stroke="#787878" stroke-width="24" stroke-linejoin="round" stroke-linecap="butt" d="m232.43016 161.01349h31.999985" fill-rule="evenodd"/><path stroke="#6d9eeb" stroke-width="24" stroke-linejoin="round" stroke-linecap="butt" d="m76.6918 42.52379v0c37.47708.0 67.85826 26.214256 67.85826 58.551178" fill-rule="evenodd"/><path stroke="#6d9eeb" stroke-width="24" stroke-linejoin="round" stroke-linecap="butt" d="m144.55647 101.07497v0c0 15.52874-7.149338 30.421463-19.875229 41.40193-12.725891 10.980484-29.985909 17.149246-47.98304 17.149246" fill-rule="evenodd"/><path stroke="#6d9eeb" stroke-width="24" stroke-linejoin="round" stroke-linecap="butt" d="m44.660305 42.52379h32.031498" fill-rule="evenodd"/><path stroke="#6d9eeb" stroke-width="24" stroke-linejoin="round" stroke-linecap="butt" d="m44.66045 138.93588h32.031498" fill-rule="evenodd"/></g></svg>